<svg version="1.1" viewBox="0.0 0.0 960.0 540.0" fill="none" stroke="none" stroke-linecap="square" stroke-miterlimit="10" xmlns:xlink="http://www.w3.org/1999/xlink" xmlns="http://www.w3.org/2000/svg"><clipPath id="p.0"><path d="m0 0l960.0 0l0 540.0l-960.0 0l0 -540.0z" clip-rule="nonzero"/></clipPath><g clip-path="url(#p.0)"><path fill="#ffffff" d="m0 0l960.0 0l0 540.0l-960.0 0z" fill-rule="evenodd"/><path fill="#000000" fill-opacity="0.0" d="m32.725285 78.1706l894.55115 0l0 215.49606l-894.55115 0z" fill-rule="evenodd"/><path fill="#000000" d="m287.76962 268.02667l0 -49.625l6.578125 0l0 20.375l25.78125 0l0 -20.375l6.578125 0l0 49.625l-6.578125 0l0 -23.390625l-25.78125 0l0 23.390625l-6.578125 0zm73.707184 -11.578125l6.28125 0.78125q-1.484375 5.515625 -5.515625 8.5625q-4.015625 3.046875 -10.28125 3.046875q-7.890625 0 -12.515625 -4.859375q-4.625 -4.859375 -4.625 -13.625q0 -9.078125 4.671875 -14.078125q4.671875 -5.015625 12.125 -5.015625q7.21875 0 11.78125 4.90625q4.5625 4.90625 4.5625 13.8125q0 0.546875 -0.03125 1.625l-26.8125 0q0.34375 5.921875 3.359375 9.078125q3.015625 3.140625 7.515625 3.140625q3.34375 0 5.71875 -1.75q2.375 -1.765625 3.765625 -5.625zm-20.015625 -9.84375l20.078125 0q-0.40625 -4.546875 -2.296875 -6.8125q-2.921875 -3.515625 -7.5625 -3.515625q-4.1875 0 -7.046875 2.8125q-2.859375 2.796875 -3.171875 7.515625zm33.82263 21.421875l0 -49.625l6.09375 0l0 49.625l-6.09375 0zm15.402496 0l0 -49.625l6.09375 0l0 49.625l-6.09375 0zm13.261871 -17.96875q0 -10.0 5.5625 -14.796875q4.625 -4.0 11.296875 -4.0q7.421875 0 12.125 4.859375q4.703125 4.859375 4.703125 13.421875q0 6.9375 -2.078125 10.921875q-2.078125 3.96875 -6.0625 6.171875q-3.984375 2.203125 -8.6875 2.203125q-7.546875 0 -12.203125 -4.84375q-4.65625 -4.84375 -4.65625 -13.9375zm6.265625 0q0 6.90625 3.015625 10.34375q3.015625 3.421875 7.578125 3.421875q4.546875 0 7.546875 -3.453125q3.015625 -3.453125 3.015625 -10.515625q0 -6.671875 -3.03125 -10.109375q-3.03125 -3.4375 -7.53125 -3.4375q-4.5625 0 -7.578125 3.421875q-3.015625 3.421875 -3.015625 10.328125zm36.150757 17.96875l0 -6.9375l6.9375 0l0 6.9375q0 3.828125 -1.359375 6.171875q-1.34375 2.359375 -4.28125 3.640625l-1.703125 -2.609375q1.9375 -0.84375 2.84375 -2.484375q0.921875 -1.640625 1.015625 -4.71875l-3.453125 0zm46.382538 0l-13.171875 -49.625l6.734375 0l7.546875 32.53125q1.21875 5.109375 2.109375 10.15625q1.890625 -7.953125 2.234375 -9.171875l9.4375 -33.515625l7.9219055 0l7.109375 25.109375q2.671875 9.34375 3.859375 17.578125q0.953125 -4.703125 2.46875 -10.796875l7.796875 -31.890625l6.59375 0l-13.609375 49.625l-6.328125 0l-10.453125 -37.8125q-1.3281555 -4.734375 -1.5625305 -5.828125q-0.78125 3.421875 -1.453125 5.828125l-10.53125 37.8125l-6.703125 0zm52.463837 -17.96875q0 -10.0 5.5625 -14.796875q4.625 -4.0 11.296875 -4.0q7.421875 0 12.125 4.859375q4.703125 4.859375 4.703125 13.421875q0 6.9375 -2.078125 10.921875q-2.078125 3.96875 -6.0625 6.171875q-3.984375 2.203125 -8.6875 2.203125q-7.546875 0 -12.203125 -4.84375q-4.65625 -4.84375 -4.65625 -13.9375zm6.265625 0q0 6.90625 3.015625 10.34375q3.015625 3.421875 7.578125 3.421875q4.546875 0 7.546875 -3.453125q3.015625 -3.453125 3.015625 -10.515625q0 -6.671875 -3.03125 -10.109375q-3.03125 -3.4375 -7.53125 -3.4375q-4.5625 0 -7.578125 3.421875q-3.015625 3.421875 -3.015625 10.328125zm34.494507 17.96875l0 -35.953125l5.484375 0l0 5.453125q2.09375 -3.828125 3.875 -5.046875q1.78125 -1.21875 3.90625 -1.21875q3.09375 0 6.265625 1.96875l-2.09375 5.65625q-2.234375 -1.328125 -4.46875 -1.328125q-2.0 0 -3.59375 1.203125q-1.59375 1.203125 -2.265625 3.328125q-1.015625 3.25 -1.015625 7.109375l0 18.828125l-6.09375 0zm23.024353 0l0 -49.625l6.09375 0l0 49.625l-6.09375 0zm38.85559 0l0 -4.53125q-3.421875 5.34375 -10.046875 5.34375q-4.296875 0 -7.90625 -2.359375q-3.609375 -2.375 -5.59375 -6.625q-1.96875 -4.25 -1.96875 -9.765625q0 -5.390625 1.78125 -9.765625q1.796875 -4.390625 5.390625 -6.71875q3.59375 -2.34375 8.015625 -2.34375q3.25 0 5.78125 1.375q2.546875 1.375 4.140625 3.5625l0 -17.796875l6.0625 0l0 49.625l-5.65625 0zm-19.265625 -17.9375q0 6.90625 2.90625 10.328125q2.921875 3.40625 6.890625 3.40625q3.984375 0 6.78125 -3.265625q2.796875 -3.265625 2.796875 -9.96875q0 -7.375 -2.84375 -10.828125q-2.84375 -3.453125 -7.015625 -3.453125q-4.0625 0 -6.796875 3.328125q-2.71875 3.3125 -2.71875 10.453125zm37.744507 5.609375l-1.859375 -26.296875l0 -11.0l7.546875 0l0 11.0l-1.75 26.296875l-3.9375 0zm-1.578125 12.328125l0 -6.9375l7.0 0l0 6.9375l-7.0 0z" fill-rule="nonzero"/></g></svg>